<svg xmlns="http://www.w3.org/2000/svg" width="30.879" height="30.957" viewBox="0 0 30.879 30.957"><defs><style>.a{fill:#fff;}</style></defs><path class="a" d="M20.49,5A15.486,15.486,0,0,0,5.054,19.62a1.547,1.547,0,1,0,3.09.169,12.365,12.365,0,0,1,21.331-7.824H27.455a1.548,1.548,0,1,0,0,3.1H32.3a1.572,1.572,0,0,0,.532,0h2.361V7.322a1.548,1.548,0,1,0-3.1,0v2.923A15.449,15.449,0,0,0,20.49,5ZM34.444,19.683a1.544,1.544,0,0,0-1.608,1.484,12.365,12.365,0,0,1-21.331,7.824h2.019a1.548,1.548,0,1,0,0-3.1H8.663a1.662,1.662,0,0,0-.49,0H5.785v7.739a1.548,1.548,0,1,0,3.1,0V30.712a15.462,15.462,0,0,0,27.045-9.375,1.545,1.545,0,0,0-.39-1.14A1.561,1.561,0,0,0,34.444,19.683Z" transform="translate(-5.05 -5)"/></svg>