<svg xmlns="http://www.w3.org/2000/svg" width="11.322" height="12.866" viewBox="0 0 11.322 12.866"><defs><style>.a{fill:#62bbff;}</style></defs><path class="a" d="M7.6,2A1.029,1.029,0,0,0,6.573,3.029v8.234A1.029,1.029,0,0,0,7.6,12.293h6.69a1.029,1.029,0,0,0,1.029-1.029V5.345a.514.514,0,0,0-.151-.364L12.341,2.151A.514.514,0,0,0,11.977,2Zm4.117.98L14.342,5.6H12.234a.515.515,0,0,1-.515-.515ZM5.029,4.573A1.029,1.029,0,0,0,4,5.6v8.234a1.029,1.029,0,0,0,1.029,1.029h6.69a1.029,1.029,0,0,0,1.029-1.029v-.515H7.6a2.061,2.061,0,0,1-2.059-2.059V4.573Z" transform="translate(-4 -2)"/></svg>