<svg xmlns="http://www.w3.org/2000/svg" width="23.421" height="23.416" viewBox="0 0 23.421 23.416"><defs><style>.a{fill:#ffe44d;}</style></defs><path class="a" d="M4.852,3.984a.878.878,0,0,0-.611,1.507l3.9,3.9A9.932,9.932,0,1,0,22,23.249l3.894,3.894A.878.878,0,1,0,27.133,25.9L5.482,4.251a.878.878,0,0,0-.63-.266ZM19.5,3.994a7.873,7.873,0,0,0-5.607,2.343l.048,0A11.13,11.13,0,0,1,25.055,17.452c0,.016,0,.032,0,.048A7.894,7.894,0,0,0,19.5,3.994ZM13.937,7.5a9.9,9.9,0,0,0-2.41.307L23.578,19.863A9.909,9.909,0,0,0,13.937,7.5Zm-2.222,5.462,1.491,1.491L12.96,15.7h1.27c.077,0,.152.006.227.011l2.98,2.98c.005.075.011.151.011.227a3.228,3.228,0,0,1-3.511,3.218,6.454,6.454,0,0,1-3.071-.7.877.877,0,0,1,.871-1.523,4.932,4.932,0,0,0,2.2.471c1.083,0,1.755-.561,1.755-1.463a1.465,1.465,0,0,0-1.463-1.463H11.889a.877.877,0,0,1-.861-1.05Z" transform="translate(-3.975 -3.984)"/></svg>