<svg xmlns="http://www.w3.org/2000/svg" width="26.044" height="24.268" viewBox="0 0 26.044 24.268"><defs><style>.a{fill:#ffe44d;}</style></defs><path class="a" d="M26.486,14.657c-.607,0-1.274.4-2.691,1.135-1.174.61-2.259,1.189-2.949,1.612A3.54,3.54,0,0,1,17.39,21.76H12.95a.888.888,0,1,1,0-1.776H17.39a1.769,1.769,0,0,0,1.166-3.1,2.641,2.641,0,0,0-1.462-.447h-2.96c-.017,0-.033,0-.05-.005a12.915,12.915,0,0,1-2.968-.33A8.645,8.645,0,0,0,9,15.841c-4.34,0-6.818,5.328-6.921,5.554a.887.887,0,0,0,.094.895l4.143,5.62a.883.883,0,0,0,.713.358.891.891,0,0,0,.861-.663,2.23,2.23,0,0,1,2.1-1.7A28.83,28.83,0,0,1,13.5,26.2a29.2,29.2,0,0,0,3.6.3c1.635,0,2.813-1.254,6.215-4.735,4.322-4.422,4.735-4.809,4.735-5.685a1.489,1.489,0,0,0-1.559-1.418Zm-4.953-5.33A5.327,5.327,0,1,1,16.206,4,5.327,5.327,0,0,1,21.533,9.327Zm-3.551.74a1.629,1.629,0,0,0-1.628-1.628h-.462l.059-.3h1.142a.592.592,0,1,0,0-1.184H15.466a.591.591,0,0,0-.58.476l-.3,1.48a.592.592,0,0,0,.58.708h1.184a.444.444,0,0,1,.444.444c0,.3-.307.444-.592.444a1.737,1.737,0,0,1-.862-.2.592.592,0,0,0-.651.99,2.861,2.861,0,0,0,1.512.395A1.669,1.669,0,0,0,17.982,10.067Z" transform="translate(-2 -4)"/></svg>