<svg xmlns="http://www.w3.org/2000/svg" width="23.244" height="25.826" viewBox="0 0 23.244 25.826"><defs><style>.a{fill:#ffe44d;}</style></defs><path class="a" d="M18.3,4C12.032,4,8.291,7.5,8.291,13.362v2.274A3.177,3.177,0,0,0,7,18.2a3.234,3.234,0,0,0,2.478,3.14c1.287,5.1,4.641,8.482,8.5,8.482a.968.968,0,0,0,0-1.937c-3.038,0-5.819-3.137-6.762-7.628a.968.968,0,0,0-.947-.769c-.022,0-.05,0-.077,0A1.292,1.292,0,0,1,8.937,18.2a1.267,1.267,0,0,1,.739-1.15.969.969,0,0,0,.552-.875V14.443a9.844,9.844,0,0,0,4.879-2.911,12.83,12.83,0,0,0,6.743,1.507,22.132,22.132,0,0,0,3.549-.281,6.015,6.015,0,0,1,.325,1.9V21.11a2.891,2.891,0,0,1-2.905,2.905H21.631a2.261,2.261,0,1,0,0,1.937h1.189a4.855,4.855,0,0,0,4.826-4.52h.016a2.583,2.583,0,0,0,2.583-2.583V17.559a2.583,2.583,0,0,0-2.583-2.583v-.323a8.068,8.068,0,0,0-.376-2.378,1.989,1.989,0,0,0,.854-.936A1.959,1.959,0,0,0,28.115,9.7C26.382,6.078,22.8,4,18.3,4ZM14.748,16.913A1.291,1.291,0,1,0,16.039,18.2,1.291,1.291,0,0,0,14.748,16.913Zm6.457,0a1.291,1.291,0,0,0-.054,2.581H21.2a1.291,1.291,0,0,0,0-2.583Z" transform="translate(-7 -4)"/></svg>