<svg xmlns="http://www.w3.org/2000/svg" width="25.388" height="22.292" viewBox="0 0 25.388 22.292"><defs><style>.a{fill:#ffe44d;}</style></defs><path class="a" d="M16.933,6a1.549,1.549,0,0,0-1.548,1.548v9.437L17.242,15.8V9.715A1.858,1.858,0,0,0,19.1,7.858h5.573a1.858,1.858,0,0,0,1.858,1.858V24.577a1.858,1.858,0,0,0-1.858,1.858H19.1a1.86,1.86,0,0,0-1.425-1.808l-.433.464-1.771,1.9s0,0,0,0l-.056.06a1.547,1.547,0,0,0,1.517,1.244H26.84a1.549,1.549,0,0,0,1.548-1.548V7.548A1.549,1.549,0,0,0,26.84,6H16.933Zm4.954,3.715a1.238,1.238,0,1,0,1.238,1.238A1.238,1.238,0,0,0,21.886,9.715ZM14.146,11.5l-4.124,1.269a3.744,3.744,0,0,0-1.864,1.306l-4.9,6.453A1.228,1.228,0,0,0,3,21.276v5.777a1.242,1.242,0,0,0,1.238,1.238l6.18-.006a4.939,4.939,0,0,0,3.616-1.573l6.371-6.824a1.985,1.985,0,0,0-2.477-3.059l-3.132,2v.006l-1.883,1.257a.836.836,0,0,1-.278.117l-.037.025.018-.018a.769.769,0,0,1-.2.024.928.928,0,0,1-.5-1.709L14.146,17.1Zm7.74,2.618a3.505,3.505,0,0,0-2.693,1.189,3.223,3.223,0,0,1,2.545,4.862,1.2,1.2,0,0,0,.149.006,3.233,3.233,0,0,0,3.406-3.028A3.233,3.233,0,0,0,21.886,14.118Zm0,7.982a1.238,1.238,0,1,0,1.238,1.238A1.238,1.238,0,0,0,21.886,22.1Z" transform="translate(-3 -6)"/></svg>