<svg xmlns="http://www.w3.org/2000/svg" width="24" height="24" viewBox="0 0 24 24">
  <g id="ico-coin" transform="translate(18519 18012)">
    <rect id="bg" width="24" height="24" transform="translate(-18519 -18012)" fill="#fff" opacity="0"/>
    <path id="ico-coin-2" data-name="ico-coin" d="M8,0a8.009,8.009,0,1,0,5.654,2.346A8,8,0,0,0,8,0Zm6.667,8a6.674,6.674,0,0,1-.124,1.267L13.255,8.88a4.961,4.961,0,0,0,0-1.76l1.288-.387A6.674,6.674,0,0,1,14.667,8ZM14.16,5.456l-1.287.386a5.365,5.365,0,0,0-2.715-2.715l.386-1.287A6.705,6.705,0,0,1,14.16,5.456ZM8,12a4,4,0,1,1,2.827-1.173A4,4,0,0,1,8,12ZM9.267,1.457,8.88,2.745a4.961,4.961,0,0,0-1.76,0L6.733,1.457a6.534,6.534,0,0,1,2.533,0ZM5.456,1.84l.386,1.287A5.365,5.365,0,0,0,3.127,5.842L1.84,5.456A6.705,6.705,0,0,1,5.456,1.84ZM1.333,8a6.666,6.666,0,0,1,.124-1.267l1.288.387a4.961,4.961,0,0,0,0,1.76l-1.288.387A6.666,6.666,0,0,1,1.333,8Zm.507,2.544,1.287-.386a5.365,5.365,0,0,0,2.715,2.715L5.456,14.16A6.705,6.705,0,0,1,1.84,10.544Zm4.893,4,.387-1.288a4.961,4.961,0,0,0,1.76,0l.387,1.288a6.533,6.533,0,0,1-2.533,0Zm3.811-.383-.386-1.286a5.366,5.366,0,0,0,2.715-2.715l1.287.386a6.7,6.7,0,0,1-3.616,3.614ZM8,5.333,10,8,8,10.667,6,8Z" transform="translate(-18515 -18008)" fill="#ffc700"/>
  </g>
</svg>
