<svg xmlns="http://www.w3.org/2000/svg" xmlns:xlink="http://www.w3.org/1999/xlink" width="16" height="16.541" viewBox="0 0 16 16.541"><defs><style>.a{fill:#52bf8d;}.b{fill:#107c42;}.c{fill:#59d19a;}.d{fill:#21a366;}.e{fill:#61e3a7;}.f{fill:#33c481;}.g{fill:url(#a);}</style><linearGradient id="a" x1="0.5" y1="1.029" x2="0.5" y2="0.009" gradientUnits="objectBoundingBox"><stop offset="0" stop-color="#0078d3"/><stop offset="1" stop-color="#0858a1"/></linearGradient></defs><path class="a" d="M20,4H4v.8a.4.4,0,0,0,.4.4H19.6a.4.4,0,0,0,.4-.4Z" transform="translate(-4 11.341)"/><path class="b" d="M9,5.2V4H21V5.2Z" transform="translate(-7 11.341)"/><path class="c" d="M20,6H4v.8a.4.4,0,0,0,.4.4H19.6a.4.4,0,0,0,.4-.4Z" transform="translate(-4 8.541)"/><path class="d" d="M9,7.2V6H21V7.2Z" transform="translate(-7 8.541)"/><path class="e" d="M19.6,8H4.4a.4.4,0,0,0-.4.4v7.2a.4.4,0,0,0,.4.4H19.6a.4.4,0,0,0,.4-.4V8.4A.4.4,0,0,0,19.6,8Z" transform="translate(-4 -1.059)"/><path class="f" d="M9,16V8H21v8Zm4.4-6.8A2.8,2.8,0,1,0,16.2,12,2.8,2.8,0,0,0,13.4,9.2Zm6.6,0a.6.6,0,1,0,.6.6A.6.6,0,0,0,20,9.2Zm-1.6,0a.6.6,0,1,0,.6.6A.6.6,0,0,0,18.4,9.2Z" transform="translate(-7 -1.059)"/><path class="g" d="M22.157,33.341H20.4v2.4a.4.4,0,0,1-.4.4H18.4a.4.4,0,0,1-.4-.4v-2.4H16.243a.242.242,0,0,1-.171-.414l2.786-2.786a.485.485,0,0,1,.686,0l2.786,2.786A.242.242,0,0,1,22.157,33.341Z" transform="translate(-11.2 -30)"/></svg>