<svg xmlns="http://www.w3.org/2000/svg" width="24" height="24" viewBox="0 0 24 24">
  <g id="ico-star-inactive" transform="translate(21597 19506)">
    <rect id="bg" width="24" height="24" transform="translate(-21597 -19506)" fill="#fff" opacity="0"/>
    <path id="ico-star-inactive-2" data-name="ico-star-inactive" d="M14.057,21.37l6,3.62a1.249,1.249,0,0,0,1.862-1.353l-1.592-6.823,5.3-4.591a1.249,1.249,0,0,0-.712-2.188l-6.976-.591L15.207,3a1.25,1.25,0,0,0-2.3,0L10.178,9.443,3.2,10.035a1.249,1.249,0,0,0-.712,2.188l5.3,4.591L6.2,23.637A1.249,1.249,0,0,0,8.06,24.99Z" transform="translate(-21599.057 -19507.244)" fill="#b0b8c9"/>
  </g>
</svg>
