<svg xmlns="http://www.w3.org/2000/svg" width="18.054" height="18" viewBox="0 0 18.054 18">
  <g id="Stack_of_coins" data-name="Stack of coins" transform="translate(-4 -4.054)">
    <path id="Path_28" data-name="Path 28" d="M30.833,30H20v1.805c0,1.5,2.425,2.708,5.416,2.708s5.416-1.212,5.416-2.708Z" transform="translate(-8.778 -14.265)" fill="#c39318"/>
    <path id="Path_29" data-name="Path 29" d="M30.833,26H20v1.805c0,1.5,2.425,2.708,5.416,2.708s5.416-1.212,5.416-2.708Z" transform="translate(-8.778 -12.07)" fill="#98710b"/>
    <path id="Path_30" data-name="Path 30" d="M30.833,22H20v1.805c0,1.5,2.425,2.708,5.416,2.708s5.416-1.212,5.416-2.708Z" transform="translate(-8.778 -9.876)" fill="#c39318"/>
    <path id="Path_31" data-name="Path 31" d="M30.833,18H20v1.805c0,1.5,2.425,2.708,5.416,2.708s5.416-1.212,5.416-2.708Z" transform="translate(-8.778 -7.681)" fill="#98710b"/>
    <path id="Path_32" data-name="Path 32" d="M30.833,14H20v1.805c0,1.5,2.425,2.708,5.416,2.708s5.416-1.212,5.416-2.708Z" transform="translate(-8.778 -5.486)" fill="#c39318"/>
    <path id="Path_33" data-name="Path 33" d="M30.833,10H20v1.805c0,1.5,2.425,2.708,5.416,2.708s5.416-1.212,5.416-2.708Z" transform="translate(-8.778 -3.292)" fill="#98710b"/>
    <ellipse id="Ellipse_14" data-name="Ellipse 14" cx="5.5" cy="2.5" rx="5.5" ry="2.5" transform="translate(11 4.054)" fill="#c39318"/>
    <ellipse id="Ellipse_15" data-name="Ellipse 15" cx="4" cy="1.5" rx="4" ry="1.5" transform="translate(13 5.054)" fill="#ddb114"/>
    <path id="Path_34" data-name="Path 34" d="M20,18.312v7.081c0,1.313,1.867,2.406,4.346,2.655a2.32,2.32,0,0,0,.168-.849V21.782C24.514,20.085,22.666,18.735,20,18.312Z" transform="translate(-8.778 -7.852)" opacity="0.05"/>
    <path id="Path_35" data-name="Path 35" d="M20,19.328V25.95c0,1.228,1.636,2.264,3.877,2.6a1.877,1.877,0,0,0,.185-.79V22.339C24.062,20.909,22.38,19.729,20,19.328Z" transform="translate(-8.778 -8.41)" opacity="0.07"/>
    <path id="Path_36" data-name="Path 36" d="M14.833,34H4v1.805c0,1.5,2.425,2.708,5.416,2.708s5.416-1.212,5.416-2.708Z" transform="translate(0 -16.459)" fill="#98710b"/>
    <path id="Path_37" data-name="Path 37" d="M14.833,30H4v1.805c0,1.5,2.425,2.708,5.416,2.708s5.416-1.212,5.416-2.708Z" transform="translate(0 -14.265)" fill="#c39318"/>
    <path id="Path_38" data-name="Path 38" d="M14.833,26H4v1.805c0,1.5,2.425,2.708,5.416,2.708s5.416-1.212,5.416-2.708Z" transform="translate(0 -12.07)" fill="#98710b"/>
    <ellipse id="Ellipse_16" data-name="Ellipse 16" cx="5.5" cy="3" rx="5.5" ry="3" transform="translate(4 11.054)" fill="#c39318"/>
    <ellipse id="Ellipse_17" data-name="Ellipse 17" cx="4" cy="2" rx="4" ry="2" transform="translate(5 12.054)" fill="#ddb114"/>
  </g>
</svg>
