<svg xmlns="http://www.w3.org/2000/svg" width="366.736" height="161.365" viewBox="0 0 366.736 161.365">
  <g id="Group_2877" data-name="Group 2877" transform="translate(-412.096 -132.176)" opacity="0.3">
    <path id="Path_378" data-name="Path 378" d="M491.751,763.047c-.271,2.138,1.956,3.836,3.936,3.7a4.873,4.873,0,0,0,4.367-4.095,3.582,3.582,0,0,0-3.217-4.362,2.7,2.7,0,0,0-2.847,3.6c.436,1.357,1.675,1.863,2.3,1.488a.62.62,0,0,0-.132-1.158.609.609,0,0,0-.6.261,1.778,1.778,0,0,1-.673-2.156c.425-1.294,2.061-1.368,3.078-.765a3.056,3.056,0,0,1,1.022,3.741,3.98,3.98,0,0,1-3.338,2.58,3.1,3.1,0,0,1-3.286-2.836A.3.3,0,0,0,491.751,763.047Z" transform="translate(-29.275 -526.65)" fill="#f48c7f"/>
    <path id="Path_388" data-name="Path 388" d="M500.084,761.99c.271-2.138-1.956-3.835-3.936-3.7a4.873,4.873,0,0,0-4.367,4.095A3.582,3.582,0,0,0,495,766.745a2.7,2.7,0,0,0,2.847-3.6c-.436-1.357-1.675-1.863-2.3-1.488a.62.62,0,0,0,.132,1.158.609.609,0,0,0,.6-.261,1.778,1.778,0,0,1,.673,2.156c-.425,1.294-2.061,1.368-3.078.765a3.056,3.056,0,0,1-1.022-3.741,3.981,3.981,0,0,1,3.338-2.58,3.1,3.1,0,0,1,3.286,2.836A.3.3,0,0,0,500.084,761.99Z" transform="translate(190.583 -547.302)" fill="#f48c7f"/>
    <path id="Path_379" data-name="Path 379" d="M1460.584,985.671l-3.9,11.7,11.884-4.674Z" transform="translate(-809.362 -739.802)" fill="#f79c8d"/>
    <path id="Path_1145" data-name="Path 1145" d="M1460.584,985.671l-3.9,11.7,11.884-4.674Z" transform="translate(-1034.987 -729.802)" fill="#f79c8d"/>
    <path id="Path_390" data-name="Path 390" d="M1464.67,997.369l3.9-11.7-11.885,4.674Z" transform="translate(-932.036 -733.953)" fill="#f79c8d"/>
    <path id="Path_1138" data-name="Path 1138" d="M1464.67,997.369l3.9-11.7-11.885,4.674Z" transform="translate(-704.728 -723.953)" fill="#f79c8d"/>
    <path id="Path_380" data-name="Path 380" d="M1461.427,1115.511a1.717,1.717,0,1,0,1.287-2.239A1.835,1.835,0,0,0,1461.427,1115.511Z" transform="translate(-833.663 -833.572)" fill="#f48c7f"/>
    <path id="Path_1147" data-name="Path 1147" d="M1461.427,1115.511a1.717,1.717,0,1,0,1.287-2.239A1.835,1.835,0,0,0,1461.427,1115.511Z" transform="translate(-1049.288 -823.572)" fill="#f48c7f"/>
    <path id="Path_1136" data-name="Path 1136" d="M1461.447,1116.552a2.5,2.5,0,1,0,1.878-3.267A2.678,2.678,0,0,0,1461.447,1116.552Z" transform="translate(-749.361 -946.946)" fill="#f48c7f"/>
    <path id="Path_1144" data-name="Path 1144" d="M1461.447,1116.552a2.5,2.5,0,1,0,1.878-3.267A2.678,2.678,0,0,0,1461.447,1116.552Z" transform="translate(-1004.231 -925.505)" fill="#c9ebe3"/>
    <path id="Path_381" data-name="Path 381" d="M1376.582,199.983l1.406-3.173-1.817-2.957a.477.477,0,0,1,.455-.724l3.452.357,2.251-2.642a.477.477,0,0,1,.829.209l.728,3.394,3.208,1.324a.477.477,0,0,1,.057.853l-3,1.741-.268,3.46a.477.477,0,0,1-.794.318l-2.584-2.318-3.374.814A.477.477,0,0,1,1376.582,199.983Z" transform="translate(-745.954 1.268)" fill="#f48c7f"/>
    <path id="Path_1143" data-name="Path 1143" d="M1376.582,199.983l1.406-3.173-1.817-2.957a.477.477,0,0,1,.455-.724l3.452.357,2.251-2.642a.477.477,0,0,1,.829.209l.728,3.394,3.208,1.324a.477.477,0,0,1,.057.853l-3,1.741-.268,3.46a.477.477,0,0,1-.794.318l-2.584-2.318-3.374.814A.477.477,0,0,1,1376.582,199.983Z" transform="translate(-961.579 -8.732)" fill="#f48c7f"/>
    <path id="Path_391" data-name="Path 391" d="M1376.89,203.547l1.406-3.173-.858-1.039h9.965a.477.477,0,0,1,.057.853l-3,1.741-.268,3.46a.477.477,0,0,1-.794.318l-2.583-2.318-3.374.814A.477.477,0,0,1,1376.89,203.547Z" transform="translate(-851.997 -67.158)" fill="#f48c7f"/>
    <path id="Path_1134" data-name="Path 1134" d="M1376.89,203.547l1.406-3.173-.858-1.039h9.965a.477.477,0,0,1,.057.853l-3,1.741-.268,3.46a.477.477,0,0,1-.794.318l-2.583-2.318-3.374.814A.477.477,0,0,1,1376.89,203.547Z" transform="translate(978.166 -1215.849) rotate(90)" fill="#f48c7f"/>
    <path id="Path_382" data-name="Path 382" d="M2364.651,220.169l1.055-2.38-1.363-2.218a.358.358,0,0,1,.342-.543l2.589.267,1.689-1.982a.358.358,0,0,1,.622.157l.546,2.546,2.406.993a.358.358,0,0,1,.043.64l-2.252,1.306-.2,2.6a.358.358,0,0,1-.6.239l-1.938-1.739-2.531.611A.358.358,0,0,1,2364.651,220.169Z" transform="translate(-1701.512 -41.847)" fill="#f7cc7f"/>
    <path id="Path_1142" data-name="Path 1142" d="M2364.651,220.169l1.055-2.38-1.363-2.218a.358.358,0,0,1,.342-.543l2.589.267,1.689-1.982a.358.358,0,0,1,.622.157l.546,2.546,2.406.993a.358.358,0,0,1,.043.64l-2.252,1.306-.2,2.6a.358.358,0,0,1-.6.239l-1.938-1.739-2.531.611A.358.358,0,0,1,2364.651,220.169Z" transform="translate(-1897.137 -61.847)" fill="#f7cc7f"/>
    <path id="Path_383" data-name="Path 383" d="M2248.767,884.633l-.167-1.972-1.719-.98a.272.272,0,0,1,.029-.487l1.824-.768.4-1.938a.272.272,0,0,1,.472-.123l1.294,1.5,1.967-.217a.272.272,0,0,1,.262.411l-1.024,1.693.814,1.8a.272.272,0,0,1-.31.377l-1.927-.45-1.464,1.332A.272.272,0,0,1,2248.767,884.633Z" transform="translate(-1732.968 -593.946)" fill="#f48c7f"/>
    <path id="Path_1139" data-name="Path 1139" d="M2248.767,884.633l-.167-1.972-1.719-.98a.272.272,0,0,1,.029-.487l1.824-.768.4-1.938a.272.272,0,0,1,.472-.123l1.294,1.5,1.967-.217a.272.272,0,0,1,.262.411l-1.024,1.693.814,1.8a.272.272,0,0,1-.31.377l-1.927-.45-1.464,1.332A.272.272,0,0,1,2248.767,884.633Z" transform="translate(-1505.66 -593.946)" fill="#f48c7f"/>
    <path id="Path_384" data-name="Path 384" d="M735.355,614.5l.773-1.746-1-1.627a.262.262,0,0,1,.25-.4l1.9.2,1.238-1.453a.262.262,0,0,1,.456.115l.4,1.867,1.765.728a.262.262,0,0,1,.032.469l-1.652.958-.147,1.9a.262.262,0,0,1-.437.175l-1.421-1.275-1.856.448A.262.262,0,0,1,735.355,614.5Z" transform="translate(-227.525 -383.111)" fill="#f7cc7f"/>
    <path id="Path_1137" data-name="Path 1137" d="M735.355,614.5l.773-1.746-1-1.627a.262.262,0,0,1,.25-.4l1.9.2,1.238-1.453a.262.262,0,0,1,.456.115l.4,1.867,1.765.728a.262.262,0,0,1,.032.469l-1.652.958-.147,1.9a.262.262,0,0,1-.437.175l-1.421-1.275-1.856.448A.262.262,0,0,1,735.355,614.5Z" transform="translate(-20.217 -373.111)" fill="#f7cc7f"/>
    <path id="Path_386" data-name="Path 386" d="M1027.917,331.786l3.065-.445,1.26,4.852,4.561-.1,1.537,3.477,1.76-.778-2.055-4.65-4.323.092-1.311-5.048-4.612.669Z" transform="translate(-513.565 -140.069)" fill="#50bfa5"/>
    <path id="Path_1135" data-name="Path 1135" d="M1027.917,331.786l3.065-.445,1.26,4.852,4.561-.1,1.537,3.477,1.76-.778-2.055-4.65-4.323.092-1.311-5.048-4.612.669Z" transform="translate(-286.257 -130.069)" fill="#50bfa5"/>
    <path id="Path_392" data-name="Path 392" d="M.118,2.6l3.065-.445L4.442,7l3.016-.064,3.276-.878-.489-1.107-4.322.092L4.612,0,0,.669Z" transform="matrix(-0.259, 0.966, -0.966, -0.259, 478.734, 278.947)" fill="#07345a"/>
    <path id="Path_1141" data-name="Path 1141" d="M.118,2.6l3.065-.445L4.442,7l3.016-.064,3.276-.878-.489-1.107-4.322.092L4.612,0,0,.669Z" transform="matrix(-0.259, 0.966, -0.966, -0.259, 696.043, 278.947)" fill="#07345a"/>
  </g>
</svg>
